<?xml version="1.0" encoding="utf-8"?>
<!-- Generator: Adobe Illustrator 27.5.0, SVG Export Plug-In . SVG Version: 6.00 Build 0)  -->
<svg version="1.1" xmlns="http://www.w3.org/2000/svg" xmlns:xlink="http://www.w3.org/1999/xlink" x="0px" y="0px"
	 viewBox="0 0 500 500" style="enable-background:new 0 0 500 500;" xml:space="preserve">
<g id="Background_Complete">
	<g>
		<rect y="382.398" style="fill:#EBEBEB;" width="500" height="0.25"/>
		<rect x="416.779" y="398.494" style="fill:#EBEBEB;" width="33.122" height="0.25"/>
		<rect x="322.527" y="401.208" style="fill:#EBEBEB;" width="8.693" height="0.25"/>
		<rect x="396.586" y="389.208" style="fill:#EBEBEB;" width="19.192" height="0.25"/>
		<rect x="52.459" y="390.888" style="fill:#EBEBEB;" width="43.193" height="0.25"/>
		<rect x="104.556" y="390.888" style="fill:#EBEBEB;" width="6.333" height="0.25"/>
		<rect x="131.471" y="395.111" style="fill:#EBEBEB;" width="93.676" height="0.25"/>
		<path style="fill:#EBEBEB;" d="M237.014,337.8H43.915c-3.147,0-5.708-2.561-5.708-5.708V60.66c0-3.147,2.561-5.708,5.708-5.708
			h193.099c3.146,0,5.707,2.561,5.707,5.708v271.432C242.721,335.239,240.16,337.8,237.014,337.8z M43.915,55.203
			c-3.01,0-5.458,2.448-5.458,5.458v271.432c0,3.01,2.448,5.458,5.458,5.458h193.099c3.009,0,5.457-2.448,5.457-5.458V60.66
			c0-3.009-2.448-5.458-5.457-5.458H43.915z"/>
		<path style="fill:#EBEBEB;" d="M453.31,337.8H260.212c-3.147,0-5.707-2.561-5.707-5.708V60.66c0-3.147,2.561-5.708,5.707-5.708
			H453.31c3.148,0,5.708,2.561,5.708,5.708v271.432C459.019,335.239,456.458,337.8,453.31,337.8z M260.212,55.203
			c-3.009,0-5.457,2.448-5.457,5.458v271.432c0,3.01,2.448,5.458,5.457,5.458H453.31c3.01,0,5.458-2.448,5.458-5.458V60.66
			c0-3.009-2.448-5.458-5.458-5.458H260.212z"/>
	</g>
	<g>
		<g>
			<path style="fill:#F5F5F5;" d="M316.544,282.454L316.544,282.454h120.141l0,0c0,4.411-3.472,8.032-7.878,8.231
				c-12.911,0.582-32.773,2.625-39.072,9.769c-11.741,13.316-10.604,60.095,3.46,70.929c4.41,3.397,17.265,10.142,17.265,10.142
				H342.77c0,0,12.012-6.881,16.186-10.142c13.984-10.923,14.391-57.674,2.595-70.929c-6.052-6.801-24.669-8.998-37.16-9.691
				C319.984,290.519,316.544,286.867,316.544,282.454z"/>
			<path style="fill:#E6E6E6;" d="M421.803,291.121c-12.203,0.979-26.828,3.39-32.068,9.333c-1.551,1.759-2.87,4.114-3.972,6.88
				h-20.178c-1.131-2.769-2.473-5.125-4.035-6.88c-5.26-5.91-20.006-8.342-31.977-9.333H421.803z"/>
		</g>
		<g>
			<polygon style="fill:#EBEBEB;" points="367.721,282.513 369.355,263.839 345.673,263.839 344.039,282.513 			"/>
			<polygon style="fill:#E0E0E0;" points="367.721,282.513 369.355,263.839 370.63,263.839 368.996,282.513 			"/>
			<polygon style="fill:#F0F0F0;" points="365.473,280.609 366.774,265.743 347.921,265.743 346.62,280.609 			"/>
			<polygon style="fill:#FAFAFA;" points="364.028,279.385 365.115,266.966 349.366,266.966 348.279,279.385 			"/>
		</g>
		<g>
			<g>
				<polygon style="fill:#E6E6E6;" points="375.403,282.454 399.193,282.454 396.553,252.285 372.763,252.285 				"/>
				<polygon style="fill:#E0E0E0;" points="375.403,282.454 374.267,282.454 371.628,252.285 372.763,252.285 				"/>
				<polygon style="fill:#F0F0F0;" points="377.559,279.378 396.498,279.378 394.397,255.361 375.458,255.361 				"/>
				<polygon style="fill:#FAFAFA;" points="378.945,277.401 394.766,277.401 393.011,257.338 377.19,257.338 				"/>
			</g>
			<path style="fill:#EBEBEB;" d="M386.936,266.365L386.936,266.365c-1.075,1.075-2.817,1.075-3.892,0l0,0
				c-1.075-1.075-1.075-2.817,0-3.892l0,0c1.075-1.075,2.817-1.075,3.892,0l0,0C388.011,263.547,388.011,265.29,386.936,266.365z"/>
			<path style="fill:#F0F0F0;" d="M385.772,269.736L385.772,269.736c0.787-0.787,2.063-0.787,2.85,0l0,0
				c1.269,1.27,0.37,3.44-1.425,3.44l0,0C385.401,273.176,384.502,271.005,385.772,269.736z"/>
		</g>
		<g>
			
				<rect x="81.728" y="123.979" transform="matrix(-1 -1.224647e-16 1.224647e-16 -1 275.644 372.0356)" style="fill:#E0E0E0;" width="112.188" height="124.078"/>
			
				<rect x="78.146" y="123.979" transform="matrix(-1 -1.224647e-16 1.224647e-16 -1 272.6504 372.0356)" style="fill:#F0F0F0;" width="116.359" height="124.078"/>
			
				<rect x="83.068" y="127.937" transform="matrix(-1 -1.224647e-16 1.224647e-16 -1 272.8361 370.2922)" style="fill:#FFFFFF;" width="106.701" height="114.419"/>
			
				<rect x="83.068" y="127.937" transform="matrix(-1 -1.224647e-16 1.224647e-16 -1 169.221 370.2922)" style="fill:#E0E0E0;" width="3.086" height="114.419"/>
			
				<rect x="136.39" y="159.65" transform="matrix(6.123234e-17 -1 1 6.123234e-17 -73.8262 349.6914)" style="fill:#E0E0E0;" width="3.086" height="104.218"/>
			
				<rect x="83.068" y="205.036" transform="matrix(-1 -1.224647e-16 1.224647e-16 -1 274.491 415.2521)" style="fill:#F0F0F0;" width="108.356" height="5.18"/>
		</g>
		<g>
			<path style="fill:#E6E6E6;" d="M378.387,145.22c0,0,1.001-6.598-3.812-10.829c-4.813-4.231-4.39-6.748-3.015-7.076
				c1.375-0.328,2.645,3.903,4.76,5.066c0,0,0.067-6.029-2.082-8.25c-2.149-2.221-3.277-7.943-1.232-8.044
				c2.045-0.101,2.256,3.399,2.679,5.88s2.701,5.972,2.701,5.972s0.445-5.395,1.834-7.616c1.389-2.221-2.314-7.299-0.885-9.52
				c1.428-2.221,3.967,2.01,3.755,6.77c-0.212,4.76-3.385,9.837-2.644,14.808c0,0,1.4-3.491,2.657-3.808
				c1.257-0.317,2.526-2.626,3.372-3.481c0.846-0.855,1.904,2.106,0,4.856c-1.904,2.75-6.77,10.108-6.029,16.055L378.387,145.22z"/>
			<path style="fill:#F5F5F5;" d="M375.51,142.218l-1.576,9.89c-0.487,3.054,1.873,5.82,4.966,5.82h1.681
				c3.093,0,5.453-2.766,4.966-5.82l-1.576-9.89H375.51z"/>
			<rect x="287.944" y="154.279" style="fill:#E6E6E6;" width="111.403" height="5.724"/>
			<rect x="293.072" y="133.18" style="fill:#F0F0F0;" width="4.908" height="21.099"/>
			<rect x="316.803" y="133.18" style="fill:#F0F0F0;" width="4.908" height="21.099"/>
			
				<rect x="345.572" y="132.916" transform="matrix(0.9855 -0.1698 0.1698 0.9855 -19.3103 61.1948)" style="fill:#F0F0F0;" width="4.908" height="21.099"/>
			<rect x="299.153" y="135.96" style="fill:#F0F0F0;" width="4.908" height="18.319"/>
			<rect x="310.434" y="135.96" style="fill:#F0F0F0;" width="4.908" height="18.319"/>
			<rect x="338.908" y="135.96" style="fill:#F0F0F0;" width="4.908" height="18.319"/>
			
				<rect x="325.295" y="135.646" transform="matrix(0.9762 -0.2169 0.2169 0.9762 -23.6053 74.5337)" style="fill:#F0F0F0;" width="4.908" height="18.319"/>
			<rect x="305.851" y="132.132" style="fill:#F0F0F0;" width="2.454" height="22.146"/>
			<rect x="335.043" y="132.132" style="fill:#F0F0F0;" width="2.454" height="22.146"/>
		</g>
		<g>
			
				<rect x="287.944" y="197.009" transform="matrix(-1 -1.224647e-16 1.224647e-16 -1 687.2912 399.7414)" style="fill:#E6E6E6;" width="111.403" height="5.724"/>
			
				<rect x="389.312" y="175.91" transform="matrix(-1 -1.224647e-16 1.224647e-16 -1 783.5314 372.9188)" style="fill:#F0F0F0;" width="4.908" height="21.099"/>
			
				<rect x="365.58" y="175.91" transform="matrix(-1 -1.224647e-16 1.224647e-16 -1 736.0679 372.9188)" style="fill:#F0F0F0;" width="4.908" height="21.099"/>
			
				<rect x="336.811" y="175.646" transform="matrix(-0.9855 -0.1698 0.1698 -0.9855 641.981 427.3039)" style="fill:#F0F0F0;" width="4.908" height="21.099"/>
			
				<rect x="383.23" y="178.69" transform="matrix(-1 -1.224647e-16 1.224647e-16 -1 771.3686 375.6992)" style="fill:#F0F0F0;" width="4.908" height="18.318"/>
			
				<rect x="371.949" y="178.69" transform="matrix(-1 -1.224647e-16 1.224647e-16 -1 748.8069 375.6992)" style="fill:#F0F0F0;" width="4.908" height="18.318"/>
			
				<rect x="343.475" y="178.69" transform="matrix(-1 -1.224647e-16 1.224647e-16 -1 691.8585 375.6992)" style="fill:#F0F0F0;" width="4.908" height="18.318"/>
			
				<rect x="357.088" y="178.376" transform="matrix(-0.9762 -0.2169 0.2169 -0.9762 669.8519 448.5876)" style="fill:#F0F0F0;" width="4.908" height="18.319"/>
			
				<rect x="378.986" y="174.863" transform="matrix(-1 -1.224647e-16 1.224647e-16 -1 760.4268 371.8713)" style="fill:#F0F0F0;" width="2.454" height="22.146"/>
			
				<rect x="349.794" y="174.863" transform="matrix(-1 -1.224647e-16 1.224647e-16 -1 702.0419 371.8713)" style="fill:#F0F0F0;" width="2.454" height="22.146"/>
			
				<rect x="298.634" y="180.31" transform="matrix(-1 -1.224647e-16 1.224647e-16 -1 621.1811 377.1292)" style="fill:#F5F5F5;" width="23.914" height="16.51"/>
		</g>
	</g>
</g>
<g id="Background_Simple" style="display:none;">
	<g style="display:inline;">
		<path style="fill:#407BFF;" d="M97.96,155.419c24.07-63.904,107.88-104.917,170.843-68.69
			c55.498,31.932,56.539,110.37,66.498,165.857c1.959,10.914,4.735,22.213,12.034,30.56c14.289,16.342,36.413,19.574,44.409,42.096
			c7.32,20.62,0.262,44.998-15.638,59.668c-21.063,19.434-53.824,19.847-77.941,6.001c-26.118-14.995-44.079-40.113-64.496-61.525
			c-7.244-7.597-15.523-16.802-24.881-21.827c-10.419-5.594-22.891-4.363-34.301-3.99C98.313,306.066,75.48,215.102,97.96,155.419z"
			/>
		<path style="opacity:0.9;fill:#FFFFFF;" d="M97.96,155.419c24.07-63.904,107.88-104.917,170.843-68.69
			c55.498,31.932,56.539,110.37,66.498,165.857c1.959,10.914,4.735,22.213,12.034,30.56c14.289,16.342,36.413,19.574,44.409,42.096
			c7.32,20.62,0.262,44.998-15.638,59.668c-21.063,19.434-53.824,19.847-77.941,6.001c-26.118-14.995-44.079-40.113-64.496-61.525
			c-7.244-7.597-15.523-16.802-24.881-21.827c-10.419-5.594-22.891-4.363-34.301-3.99C98.313,306.066,75.48,215.102,97.96,155.419z"
			/>
	</g>
</g>
<g id="Shadow_1_">
	<ellipse id="_x3C_Path_x3E__359_" style="fill:#F5F5F5;" cx="250" cy="416.238" rx="193.889" ry="11.323"/>
</g>
<g id="Plant">
	<g>
		<path style="fill:#407BFF;" d="M332.468,391.232c0,0-4.953-10.806,0.706-21.459c5.659-10.653,7.299-13.162,3.692-15.344
			c-3.607-2.182-5.262,8.522-5.262,8.522s-3.041-7.364-0.53-15.071c2.511-7.707,4.085-20.259,0.656-21.606
			c-3.429-1.346-0.655,15.659-3.63,21.456c0,0-2.499-6.453-2.91-12.643c-0.411-6.19,0.231-16.075-2.477-18.61
			c-2.708-2.535-4.442-0.781-1.781,12.879c2.661,13.661,2.641,24.765,2.641,24.765s-5.877-17.92-9.822-18.442
			c-3.944-0.523-3.939,5.281-0.563,10.314c3.376,5.033,9.888,14.051,10.956,18.69c0,0-6.451-13.485-12.254-9.352
			c-5.803,4.133,5.051,12.278,9.889,15.222c4.838,2.943,8.197,21.393,8.197,21.393L332.468,391.232z"/>
		<path style="opacity:0.2;enable-background:new    ;" d="M332.468,391.232c0,0-4.953-10.806,0.706-21.459
			c5.659-10.653,7.299-13.162,3.692-15.344c-3.607-2.182-5.262,8.522-5.262,8.522s-3.041-7.364-0.53-15.071
			c2.511-7.707,4.085-20.259,0.656-21.606c-3.429-1.346-0.655,15.659-3.63,21.456c0,0-2.499-6.453-2.91-12.643
			c-0.411-6.19,0.231-16.075-2.477-18.61c-2.708-2.535-4.442-0.781-1.781,12.879c2.661,13.661,2.641,24.765,2.641,24.765
			s-5.877-17.92-9.822-18.442c-3.944-0.523-3.939,5.281-0.563,10.314c3.376,5.033,9.888,14.051,10.956,18.69
			c0,0-6.451-13.485-12.254-9.352c-5.803,4.133,5.051,12.278,9.889,15.222c4.838,2.943,8.197,21.393,8.197,21.393L332.468,391.232z"
			/>
		<path style="fill:#407BFF;" d="M328.559,395.664c0,0,4.823-10.879-0.963-21.447c-5.786-10.568-7.457-13.052-3.876-15.288
			c3.581-2.236,5.364,8.443,5.364,8.443s2.952-7.409,0.349-15.077c-2.603-7.669-4.328-20.197-0.915-21.594
			c3.412-1.398,0.842,15.648,3.887,21.4c0,0,2.421-6.49,2.758-12.685c0.337-6.196-0.424-16.07,2.253-18.645
			c2.677-2.576,4.433-0.847,1.936,12.852c-2.497,13.699-2.344,24.802-2.344,24.802s5.662-18.006,9.599-18.587
			c3.938-0.581,4.003,5.221,0.687,10.305c-3.316,5.083-9.718,14.197-10.73,18.852c0,0,6.289-13.58,12.141-9.534
			c5.852,4.046-4.903,12.353-9.705,15.368c-4.802,3.015-7.94,21.513-7.94,21.513L328.559,395.664z"/>
		<g>
			<polygon style="fill:#263238;" points="350.802,387.908 310.962,387.908 314.186,416.418 347.578,416.418 			"/>
		</g>
	</g>
</g>
<g id="Window">
	<g>
		<path style="opacity:0.2;enable-background:new    ;" d="M429.05,296.383H218.49c-1.368,0-2.478-1.109-2.478-2.478V106.878
			c0-1.368,1.109-2.478,2.478-2.478H429.05c1.369,0,2.478,1.109,2.478,2.478v187.027
			C431.528,295.273,430.419,296.383,429.05,296.383z"/>
		<path style="fill:#407BFF;" d="M420.898,292.838H210.337c-1.369,0-2.478-1.109-2.478-2.478V103.333
			c0-1.369,1.109-2.478,2.478-2.478h210.561c1.368,0,2.478,1.109,2.478,2.478V290.36
			C423.376,291.728,422.266,292.838,420.898,292.838z"/>
		<path style="opacity:0.6;fill:#FFFFFF;" d="M207.859,117.945V290.36c0,1.368,0.92,2.478,2.055,2.478h211.407
			c1.135,0,2.055-1.109,2.055-2.478V117.945H207.859z"/>
		<rect x="210.414" y="128.11" style="fill:#FFFFFF;" width="210.407" height="152.267"/>
		<g>
			<ellipse style="opacity:0.6;fill:#FFFFFF;" cx="416.338" cy="108.896" rx="3.158" ry="3.808"/>
			<ellipse style="opacity:0.6;fill:#FFFFFF;" cx="405.986" cy="108.896" rx="3.158" ry="3.808"/>
			<path style="opacity:0.6;fill:#FFFFFF;" d="M398.792,108.896c0,2.103-1.414,3.808-3.158,3.808c-1.744,0-3.158-1.705-3.158-3.808
				s1.414-3.808,3.158-3.808C397.378,105.088,398.792,106.793,398.792,108.896z"/>
		</g>
		<g>
			<g>
				<g>
					<polygon style="fill:#407BFF;" points="255.242,145.885 255.242,185.163 245.14,197.344 222.774,197.344 222.774,145.885 					
						"/>
					<polygon style="opacity:0.7;fill:#FFFFFF;" points="255.242,145.885 255.242,185.163 245.14,197.344 222.774,197.344 
						222.774,145.885 					"/>
					<polygon style="opacity:0.3;fill:#407BFF;" points="255.242,185.163 245.14,197.344 245.14,185.163 					"/>
				</g>
				<g>
					<rect x="227.807" y="153.306" style="opacity:0.3;fill:#407BFF;" width="22.403" height="1.475"/>
					<rect x="227.807" y="158.895" style="opacity:0.3;fill:#407BFF;" width="22.403" height="1.475"/>
					<rect x="227.807" y="164.484" style="opacity:0.3;fill:#407BFF;" width="22.403" height="1.475"/>
					<rect x="227.807" y="170.073" style="opacity:0.3;fill:#407BFF;" width="22.403" height="1.475"/>
					<rect x="227.807" y="175.663" style="opacity:0.3;fill:#407BFF;" width="16.609" height="1.475"/>
				</g>
			</g>
			<g>
				<g>
					<polygon style="fill:#407BFF;" points="306.74,145.885 306.74,185.163 296.638,197.344 274.272,197.344 274.272,145.885 					
						"/>
					<polygon style="opacity:0.7;fill:#FFFFFF;" points="306.74,145.885 306.74,185.163 296.638,197.344 274.272,197.344 
						274.272,145.885 					"/>
					<polygon style="opacity:0.3;fill:#407BFF;" points="306.74,185.163 296.638,197.344 296.638,185.163 					"/>
				</g>
				<g>
					<rect x="279.305" y="153.306" style="opacity:0.3;fill:#407BFF;" width="22.403" height="1.475"/>
					<rect x="279.305" y="158.895" style="opacity:0.3;fill:#407BFF;" width="22.403" height="1.475"/>
					<rect x="279.305" y="164.484" style="opacity:0.3;fill:#407BFF;" width="22.403" height="1.475"/>
					<rect x="279.305" y="170.073" style="opacity:0.3;fill:#407BFF;" width="22.403" height="1.475"/>
					<rect x="279.305" y="175.663" style="opacity:0.3;fill:#407BFF;" width="16.609" height="1.475"/>
				</g>
			</g>
			<g>
				<g>
					<polygon style="fill:#407BFF;" points="358.238,145.885 358.238,185.163 348.136,197.344 325.77,197.344 325.77,145.885 					
						"/>
					<polygon style="opacity:0.7;fill:#FFFFFF;" points="358.238,145.885 358.238,185.163 348.136,197.344 325.77,197.344 
						325.77,145.885 					"/>
					<polygon style="opacity:0.3;fill:#407BFF;" points="358.238,185.163 348.136,197.344 348.136,185.163 					"/>
				</g>
				<g>
					<rect x="330.802" y="153.306" style="opacity:0.3;fill:#407BFF;" width="22.403" height="1.475"/>
					<rect x="330.802" y="158.895" style="opacity:0.3;fill:#407BFF;" width="22.403" height="1.475"/>
					<rect x="330.802" y="164.484" style="opacity:0.3;fill:#407BFF;" width="22.403" height="1.475"/>
					<rect x="330.802" y="170.073" style="opacity:0.3;fill:#407BFF;" width="22.403" height="1.475"/>
					<rect x="330.802" y="175.663" style="opacity:0.3;fill:#407BFF;" width="16.609" height="1.475"/>
				</g>
			</g>
			<g>
				<g>
					<polygon style="fill:#407BFF;" points="409.736,145.885 409.736,185.163 399.633,197.344 377.268,197.344 377.268,145.885 
											"/>
					<polygon style="opacity:0.7;fill:#FFFFFF;" points="409.736,145.885 409.736,185.163 399.633,197.344 377.268,197.344 
						377.268,145.885 					"/>
					<polygon style="opacity:0.3;fill:#407BFF;" points="409.736,185.163 399.633,197.344 399.633,185.163 					"/>
				</g>
				<g>
					<rect x="382.3" y="153.306" style="opacity:0.3;fill:#407BFF;" width="22.403" height="1.475"/>
					<rect x="382.3" y="158.895" style="opacity:0.3;fill:#407BFF;" width="22.403" height="1.475"/>
					<rect x="382.3" y="164.484" style="opacity:0.3;fill:#407BFF;" width="22.403" height="1.475"/>
					<rect x="382.3" y="170.073" style="opacity:0.3;fill:#407BFF;" width="22.403" height="1.475"/>
					<rect x="382.3" y="175.663" style="opacity:0.3;fill:#407BFF;" width="16.609" height="1.475"/>
				</g>
			</g>
			<g>
				<g>
					<g>
						<polygon style="fill:#407BFF;" points="255.242,213.885 255.242,253.163 245.14,265.344 222.774,265.344 222.774,213.885 
													"/>
						<polygon style="opacity:0.7;fill:#FFFFFF;" points="255.242,213.885 255.242,253.163 245.14,265.344 222.774,265.344 
							222.774,213.885 						"/>
						<polygon style="opacity:0.3;fill:#407BFF;" points="255.242,253.163 245.14,265.344 245.14,253.163 						"/>
					</g>
					<g>
						<rect x="227.807" y="221.306" style="opacity:0.3;fill:#407BFF;" width="22.403" height="1.475"/>
						<rect x="227.807" y="226.895" style="opacity:0.3;fill:#407BFF;" width="22.403" height="1.475"/>
						<rect x="227.807" y="232.484" style="opacity:0.3;fill:#407BFF;" width="22.403" height="1.475"/>
						<rect x="227.807" y="238.073" style="opacity:0.3;fill:#407BFF;" width="22.403" height="1.475"/>
						<rect x="227.807" y="243.663" style="opacity:0.3;fill:#407BFF;" width="16.609" height="1.475"/>
					</g>
				</g>
				<g>
					<g>
						<polygon style="fill:#407BFF;" points="306.74,213.885 306.74,253.163 296.638,265.344 274.272,265.344 274.272,213.885 
													"/>
						<polygon style="opacity:0.7;fill:#FFFFFF;" points="306.74,213.885 306.74,253.163 296.638,265.344 274.272,265.344 
							274.272,213.885 						"/>
						<polygon style="opacity:0.3;fill:#407BFF;" points="306.74,253.163 296.638,265.344 296.638,253.163 						"/>
					</g>
					<g>
						<rect x="279.305" y="221.306" style="opacity:0.3;fill:#407BFF;" width="22.403" height="1.475"/>
						<rect x="279.305" y="226.895" style="opacity:0.3;fill:#407BFF;" width="22.403" height="1.475"/>
						<rect x="279.305" y="232.484" style="opacity:0.3;fill:#407BFF;" width="22.403" height="1.475"/>
						<rect x="279.305" y="238.073" style="opacity:0.3;fill:#407BFF;" width="22.403" height="1.475"/>
						<rect x="279.305" y="243.663" style="opacity:0.3;fill:#407BFF;" width="16.609" height="1.475"/>
					</g>
				</g>
				<g>
					<g>
						<polygon style="fill:#407BFF;" points="358.238,213.885 358.238,253.163 348.136,265.344 325.77,265.344 325.77,213.885 
													"/>
						<polygon style="opacity:0.7;fill:#FFFFFF;" points="358.238,213.885 358.238,253.163 348.136,265.344 325.77,265.344 
							325.77,213.885 						"/>
						<polygon style="opacity:0.3;fill:#407BFF;" points="358.238,253.163 348.136,265.344 348.136,253.163 						"/>
					</g>
					<g>
						<rect x="330.802" y="221.306" style="opacity:0.3;fill:#407BFF;" width="22.403" height="1.475"/>
						<rect x="330.802" y="226.895" style="opacity:0.3;fill:#407BFF;" width="22.403" height="1.475"/>
						<rect x="330.802" y="232.484" style="opacity:0.3;fill:#407BFF;" width="22.403" height="1.475"/>
						<rect x="330.802" y="238.073" style="opacity:0.3;fill:#407BFF;" width="22.403" height="1.475"/>
						<rect x="330.802" y="243.663" style="opacity:0.3;fill:#407BFF;" width="16.609" height="1.475"/>
					</g>
				</g>
				<g>
					<g>
						<polygon style="fill:#407BFF;" points="409.736,213.885 409.736,253.163 399.633,265.344 377.268,265.344 377.268,213.885 
													"/>
						<polygon style="opacity:0.7;fill:#FFFFFF;" points="409.736,213.885 409.736,253.163 399.633,265.344 377.268,265.344 
							377.268,213.885 						"/>
						<polygon style="opacity:0.3;fill:#407BFF;" points="409.736,253.163 399.633,265.344 399.633,253.163 						"/>
					</g>
					<g>
						<rect x="382.3" y="221.306" style="opacity:0.3;fill:#407BFF;" width="22.403" height="1.475"/>
						<rect x="382.3" y="226.895" style="opacity:0.3;fill:#407BFF;" width="22.403" height="1.475"/>
						<rect x="382.3" y="232.484" style="opacity:0.3;fill:#407BFF;" width="22.403" height="1.475"/>
						<rect x="382.3" y="238.073" style="opacity:0.3;fill:#407BFF;" width="22.403" height="1.475"/>
						<rect x="382.3" y="243.663" style="opacity:0.3;fill:#407BFF;" width="16.609" height="1.475"/>
					</g>
				</g>
			</g>
		</g>
	</g>
</g>
<g id="Padlock">
	<g>
		<path style="opacity:0.1;enable-background:new    ;" d="M329.956,228.895h-51.824c-2.403,0-4.352-1.948-4.352-4.352v-38.84
			c0-2.403,1.948-4.352,4.352-4.352h51.824c2.403,0,4.352,1.948,4.352,4.352v38.84C334.308,226.947,332.359,228.895,329.956,228.895
			z"/>
		<g style="opacity:0.1;enable-background:new    ;">
			<path d="M326.253,179.138h-6v-6.489c0-8.525-6.936-15.461-15.462-15.461c-8.525,0-15.461,6.936-15.461,15.461v6.489h-6v-6.489
				c0-11.834,9.627-21.461,21.461-21.461c11.834,0,21.462,9.628,21.462,21.461V179.138z"/>
		</g>
		<path style="fill:#263238;" d="M304.956,226.895h-51.824c-2.403,0-4.352-1.948-4.352-4.352v-38.84
			c0-2.403,1.948-4.352,4.352-4.352h51.824c2.403,0,4.352,1.948,4.352,4.352v38.84C309.308,224.947,307.359,226.895,304.956,226.895
			z"/>
		<path style="opacity:0.2;fill:#FFFFFF;" d="M294.011,226.895h-40.879c-2.403,0-4.352-1.948-4.352-4.352v-38.84
			c0-2.403,1.948-4.352,4.352-4.352h40.879c2.403,0,4.352,1.948,4.352,4.352v38.84C298.363,224.947,296.414,226.895,294.011,226.895
			z"/>
		<path style="fill:#263238;" d="M276.61,197.188c0-3.278-1.995-5.935-4.457-5.935c-2.461,0-4.457,2.657-4.457,5.935
			c0,2.493,1.156,4.623,2.791,5.502l-0.825,12.397h4.98l-0.825-12.397C275.455,201.812,276.61,199.681,276.61,197.188z"/>
		<g>
			<g>
				<path style="fill:#263238;" d="M301.253,177.138h-6v-6.489c0-8.525-6.936-15.461-15.462-15.461
					c-8.525,0-15.461,6.936-15.461,15.461v6.489h-6v-6.489c0-11.834,9.627-21.461,21.461-21.461
					c11.834,0,21.462,9.628,21.462,21.461V177.138z"/>
			</g>
			<g style="opacity:0.4;">
				<path style="fill:#FFFFFF;" d="M301.253,177.138h-6v-6.489c0-8.525-6.936-15.461-15.462-15.461
					c-8.525,0-15.461,6.936-15.461,15.461v6.489h-6v-6.489c0-11.834,9.627-21.461,21.461-21.461
					c11.834,0,21.462,9.628,21.462,21.461V177.138z"/>
			</g>
			<path style="opacity:0.2;fill:#FFFFFF;" d="M301.25,170.65v6.49h-4.07v-7.23c0-10.83-8.78-19.6-19.61-19.6
				c-4.09,0-7.88,1.27-10.99,3.45c3.65-2.86,8.24-4.57,13.21-4.57C291.62,149.19,301.25,158.81,301.25,170.65z"/>
		</g>
	</g>
</g>
<g id="Desk">
	<g>
		<path style="fill:#407BFF;" d="M216.457,285.63h-24.242v-0.935h5.475c0.761,0,1.406-0.554,1.538-1.299l2.448-14.581l0.48-2.87
			h8.304l7.427,17.526C218.318,284.497,217.566,285.63,216.457,285.63z"/>
		<path style="opacity:0.4;fill:#FFFFFF;enable-background:new    ;" d="M216.457,285.63h-24.242v-0.935h5.475
			c0.761,0,1.406-0.554,1.538-1.299l2.448-14.581l0.48-2.87h8.304l7.427,17.526C218.318,284.497,217.566,285.63,216.457,285.63z"/>
		<path style="opacity:0.2;enable-background:new    ;" d="M216.49,284.696h-18.799c0.761,0,1.406-0.554,1.538-1.299l2.448-14.581
			h8.701l6.617,15.111C217.152,284.282,216.887,284.696,216.49,284.696z"/>
		<g>
			<path style="fill:#407BFF;" d="M229.493,271.319h-48.488c-0.484,0-0.803-0.393-0.711-0.877l6.888-36.432
				c0.092-0.484,0.559-0.877,1.043-0.877h48.488c0.484,0,0.803,0.393,0.711,0.877l-6.888,36.432
				C230.444,270.926,229.977,271.319,229.493,271.319z"/>
			<path style="opacity:0.4;fill:#FFFFFF;enable-background:new    ;" d="M229.493,271.319h-48.488
				c-0.484,0-0.803-0.393-0.711-0.877l6.888-36.432c0.092-0.484,0.559-0.877,1.043-0.877h48.488c0.484,0,0.803,0.393,0.711,0.877
				l-6.888,36.432C230.444,270.926,229.977,271.319,229.493,271.319z"/>
			<path style="fill:#263238;" d="M228.493,271.319h-48.488c-0.484,0-0.803-0.393-0.711-0.877l6.888-36.432
				c0.092-0.484,0.559-0.877,1.043-0.877h48.488c0.484,0,0.803,0.393,0.711,0.877l-6.888,36.432
				C229.444,270.926,228.977,271.319,228.493,271.319z"/>
			<polygon style="fill:#407BFF;" points="227.85,269.085 181.493,269.085 187.868,235.367 234.225,235.367 			"/>
		</g>
	</g>
	<g>
		<path style="fill:#407BFF;" d="M147.048,285.63v-1.137l18.666-3.772h36.503c1.355,0,2.453,1.098,2.453,2.453l0,0
			c0,1.355-1.098,2.453-2.453,2.453L147.048,285.63z"/>
		<path style="opacity:0.4;fill:#FFFFFF;enable-background:new    ;" d="M204.666,283.177c0,0.67-0.27,1.29-0.71,1.73
			c-0.45,0.44-1.06,0.72-1.74,0.72h-55.17v-1.13l18.67-3.78h36.5C203.576,280.717,204.666,281.817,204.666,283.177z"/>
		<path style="opacity:0.4;fill:#FFFFFF;enable-background:new    ;" d="M204.666,283.177c0,0.67-0.27,1.29-0.71,1.73
			c-0.45,0.44-1.06,0.72-1.74,0.72h-22.17v-1.13l18.67-3.78h3.5C203.576,280.717,204.666,281.817,204.666,283.177z"/>
	</g>
	<g>
		<g>
			<polygon style="fill:#263238;" points="218.011,416.418 223.005,416.418 231.98,291.477 225.353,291.477 			"/>
			<polygon style="opacity:0.1;fill:#FFFFFF;enable-background:new    ;" points="218.008,416.418 223.006,416.418 231.542,297.683 
				231.982,291.678 225.354,291.678 224.995,297.683 			"/>
			<polygon style="opacity:0.2;enable-background:new    ;" points="224.995,297.385 231.542,297.385 231.982,291.678 
				225.354,291.678 			"/>
		</g>
		<g>
			<polygon style="fill:#263238;" points="181.356,416.418 186.351,416.418 187.166,291.477 180.54,291.477 			"/>
			<polygon style="opacity:0.1;fill:#FFFFFF;enable-background:new    ;" points="180.537,291.678 180.667,311.836 181.352,416.418 
				186.35,416.418 187.035,311.836 187.165,291.678 			"/>
			<polygon style="opacity:0.2;enable-background:new    ;" points="180.537,291.678 180.667,312.06 187.035,312.06 
				187.165,291.678 			"/>
		</g>
		<g>
			<polygon style="fill:#263238;" points="128.328,416.418 133.323,416.418 142.297,291.477 135.671,291.477 			"/>
			<polygon style="opacity:0.1;fill:#FFFFFF;enable-background:new    ;" points="128.325,416.418 133.323,416.418 141.859,297.683 
				142.299,291.678 135.671,291.678 135.312,297.683 			"/>
			<polygon style="opacity:0.2;enable-background:new    ;" points="135.312,297.385 141.859,297.385 142.299,291.678 
				135.671,291.678 			"/>
		</g>
		<g>
			<polygon style="fill:#263238;" points="275.149,416.418 280.143,416.418 272.801,291.477 266.175,291.477 			"/>
			<polygon style="opacity:0.1;fill:#FFFFFF;enable-background:new    ;" points="266.176,291.678 266.616,297.683 275.152,416.418 
				280.142,416.418 273.163,297.683 272.804,291.678 			"/>
			<polygon style="opacity:0.2;enable-background:new    ;" points="272.804,291.678 266.176,291.678 266.616,297.385 
				273.163,297.385 			"/>
		</g>
		<g>
			<path style="fill:#407BFF;" d="M132.58,294.606h143.311c1.194,0,2.162-0.968,2.162-2.162v-4.096H130.418v4.096
				C130.418,293.638,131.386,294.606,132.58,294.606z"/>
			<path style="opacity:0.4;fill:#FFFFFF;enable-background:new    ;" d="M132.58,294.606h143.311c1.194,0,2.162-0.968,2.162-2.162
				v-4.096H130.418v4.096C130.418,293.638,131.386,294.606,132.58,294.606z"/>
		</g>
		
			<rect x="130.418" y="288.348" transform="matrix(-1 -1.224647e-16 1.224647e-16 -1 408.4714 579.8245)" style="opacity:0.2;enable-background:new    ;" width="147.635" height="3.129"/>
		<g>
			<path style="fill:#407BFF;" d="M127.322,289.164h153.827c0.974,0,1.763-0.789,1.763-1.763l0,0c0-0.973-0.789-1.763-1.763-1.763
				H127.322c-0.974,0-1.763,0.789-1.763,1.763l0,0C125.56,288.374,126.349,289.164,127.322,289.164z"/>
			<path style="opacity:0.4;fill:#FFFFFF;enable-background:new    ;" d="M127.322,289.164h153.827c0.974,0,1.763-0.789,1.763-1.763
				l0,0c0-0.973-0.789-1.763-1.763-1.763H127.322c-0.974,0-1.763,0.789-1.763,1.763l0,0
				C125.56,288.374,126.349,289.164,127.322,289.164z"/>
		</g>
	</g>
	<g>
		<g>
			<path style="opacity:0.3;fill:#FFFFFF;enable-background:new    ;" d="M190.444,254.256c-0.447,0-0.866-0.197-1.15-0.542
				c-0.285-0.346-0.398-0.795-0.313-1.234l0.624-3.193c0.174-0.894,0.961-1.542,1.872-1.542h26.006c0.447,0,0.866,0.197,1.15,0.542
				c0.285,0.346,0.398,0.795,0.313,1.234l-0.623,3.193c-0.174,0.894-0.961,1.542-1.872,1.542H190.444z"/>
			<path style="fill:#FFFFFF;" d="M216.45,253.755h-26.006c-0.623,0-1.091-0.568-0.972-1.18l0.623-3.194
				c0.129-0.661,0.708-1.137,1.381-1.137h26.006c0.623,0,1.091,0.568,0.972,1.18l-0.623,3.194
				C217.702,253.279,217.123,253.755,216.45,253.755z"/>
			<g>
				<path style="fill:#263238;" d="M195.169,251c-0.163,0.834-0.907,1.511-1.662,1.511c-0.755,0-1.236-0.676-1.073-1.511
					c0.163-0.834,0.907-1.511,1.662-1.511C194.852,249.489,195.332,250.166,195.169,251z"/>
				<path style="fill:#263238;" d="M199.234,251c-0.163,0.834-0.907,1.511-1.662,1.511c-0.755,0-1.235-0.676-1.073-1.511
					c0.163-0.834,0.907-1.511,1.662-1.511C198.916,249.489,199.396,250.166,199.234,251z"/>
				<path style="fill:#263238;" d="M203.298,251c-0.163,0.834-0.907,1.511-1.662,1.511c-0.755,0-1.236-0.676-1.073-1.511
					c0.163-0.834,0.907-1.511,1.662-1.511C202.981,249.489,203.461,250.166,203.298,251z"/>
				<path style="fill:#263238;" d="M207.363,251c-0.163,0.834-0.907,1.511-1.662,1.511s-1.236-0.676-1.073-1.511
					c0.163-0.834,0.907-1.511,1.662-1.511C207.045,249.489,207.525,250.166,207.363,251z"/>
				<path style="fill:#263238;" d="M211.427,251c-0.163,0.834-0.907,1.511-1.662,1.511c-0.755,0-1.235-0.676-1.073-1.511
					c0.163-0.834,0.907-1.511,1.662-1.511C211.11,249.489,211.59,250.166,211.427,251z"/>
				<path style="fill:#263238;" d="M215.492,251c-0.163,0.834-0.907,1.511-1.662,1.511c-0.755,0-1.236-0.676-1.073-1.511
					c0.163-0.834,0.907-1.511,1.662-1.511S215.655,250.166,215.492,251z"/>
			</g>
		</g>
		<g>
			<g>
				<path style="opacity:0.3;fill:#FFFFFF;enable-background:new    ;" d="M220.083,254.256c-0.352,0-0.674-0.148-0.886-0.405
					c-0.214-0.261-0.297-0.614-0.226-0.969l0.788-3.959c0.131-0.661,0.755-1.179,1.42-1.179h3.959c0.352,0,0.675,0.148,0.886,0.405
					c0.214,0.261,0.297,0.614,0.226,0.969l-0.788,3.959c-0.131,0.661-0.755,1.179-1.42,1.179H220.083z"/>
				<path style="fill:#263238;" d="M220.083,253.755h3.959c0.429,0,0.845-0.347,0.93-0.776l0.787-3.959
					c0.085-0.429-0.193-0.776-0.622-0.776h-3.959c-0.429,0-0.845,0.347-0.93,0.776l-0.788,3.959
					C219.376,253.408,219.654,253.755,220.083,253.755z"/>
			</g>
			<g>
				<g>
					<path style="fill:#407BFF;" d="M222.114,252.75c-0.064,0-0.123-0.024-0.162-0.073c-0.078-0.098-0.047-0.256,0.07-0.354
						l1.586-1.323l-1.059-1.323c-0.078-0.098-0.047-0.256,0.07-0.354c0.117-0.098,0.275-0.098,0.354,0l1.201,1.5
						c0.078,0.098,0.047,0.256-0.07,0.354l-1.798,1.5C222.247,252.725,222.178,252.75,222.114,252.75z"/>
				</g>
				<g>
					<path style="fill:#407BFF;" d="M223.912,251.25h-2.703c-0.138,0-0.228-0.112-0.2-0.25c0.027-0.138,0.162-0.25,0.3-0.25h2.703
						c0.138,0,0.228,0.112,0.2,0.25C224.184,251.137,224.05,251.25,223.912,251.25z"/>
				</g>
			</g>
		</g>
	</g>
</g>
<g id="Speech_bubble">
	<g>
		<path style="fill:#407BFF;" d="M136.27,190.194h21.555c2.277,0,4.123-1.846,4.123-4.123v-21.555c0-2.277-1.846-4.123-4.123-4.123
			H136.27c-2.277,0-4.123,1.846-4.123,4.123v21.555C132.147,188.348,133.993,190.194,136.27,190.194z"/>
		<polygon style="fill:#407BFF;" points="144.717,189.081 147.048,199.103 149.378,189.081 		"/>
		<g>
			<path style="opacity:0.3;fill:#FFFFFF;" d="M146.787,184.233c-8.78-5.364-8.619-14.453-8.616-14.544l0.01-0.32l8.867-3.776
				l8.867,3.776l0.01,0.32c0.003,0.091,0.164,9.18-8.616,14.544l-0.261,0.159L146.787,184.233z"/>
			<path style="opacity:0.6;fill:#FFFFFF;" d="M147.048,166.136l8.377,3.568c0,0,0.257,8.828-8.377,14.103V166.136z"/>
			<path style="opacity:0.4;fill:#FFFFFF;" d="M147.048,166.136l-8.377,3.568c0,0-0.257,8.828,8.377,14.103V166.136z"/>
		</g>
	</g>
</g>
<g id="Character">
	<g id="_x3C_Group_x3E__38_">
		<path style="fill:#E4897B;" d="M138.998,279.111l6.989,1.047c0,0,2.374-0.784,4.879-1.047c2.505-0.264,5.407,0,5.407,0
			s3.165,1.187,3.165,4.22c0,0-7.385,1.978-10.22,0.791l-10.22-0.791V279.111z"/>
		<path style="opacity:0.2;enable-background:new    ;" d="M138.998,279.111l6.989,1.047c0,0,2.374-0.784,4.879-1.047
			c2.505-0.264,5.407,0,5.407,0s3.165,1.187,3.165,4.22c0,0-7.385,1.978-10.22,0.791l-10.22-0.791V279.111z"/>
		<g>
			<g>
				<path style="fill:#AA473D;" d="M156.343,231.836c0,0,0.18,2.514,0.838,4.237c0,0-1.136,0.765-2.445-0.027L156.343,231.836z"/>
				<path style="fill:#263238;" d="M159.066,229.844c-0.268,0.647-0.748,1.063-1.072,0.929c-0.324-0.134-0.368-0.767-0.1-1.414
					c0.268-0.647,0.748-1.063,1.071-0.929C159.289,228.564,159.334,229.197,159.066,229.844z"/>
				
					<path style="fill:none;stroke:#263238;stroke-width:0.7247;stroke-linecap:round;stroke-linejoin:round;stroke-miterlimit:10;" d="
					M160.714,227.24c0,0-2.065-1.254-3.902-0.317"/>
			</g>
			<path style="fill:#E4897B;" d="M154.386,237.279c-0.225,0.281-0.457,0.551-0.702,0.799c-1.455,1.508-3.285,2.464-5.193,2.851
				c-0.5,0.105-1.009,0.17-1.517,0.197c-2.683,0.136-5.361-0.823-7.237-2.895c-0.773-0.837-1.417-1.876-1.861-3.098
				c-1.783-4.799,0.035-8.585,2.594-15.229c0.53-1.44,1.382-2.738,2.505-3.776c3.926-3.676,10.09-3.464,13.758,0.459
				C161.915,222.051,158.428,232.083,154.386,237.279z"/>
			<path style="opacity:0.2;enable-background:new    ;" d="M148.492,240.929c-0.5,0.105-1.009,0.17-1.517,0.197
				c-2.683,0.136-5.361-0.823-7.237-2.895c1.022-1.046,2.152-1.675,2.152-1.675S146.029,237.71,148.492,240.929z"/>
			<path style="fill:#E4897B;" d="M126.935,241.178c0.655,4.686,10.893,6.435,10.893,6.435s5.053,2.301,5.26,0.295
				c-2.09-2.419-2.322-4.528-1.601-6.379c0.421-1.077,1.169-2.061,2.06-2.973c0.462-0.484,0.973-0.939,1.491-1.376l-3.123-12.823
				C139.664,229.23,131.975,240.484,126.935,241.178z"/>
			<path style="fill:#263238;" d="M156.153,212.96c0,0,2.186-0.272,3.863,3.806c1.413,3.437-1.912,4.18-1.769,7.835
				c0.143,3.655-3.193,5.68-3.193,5.68s-2.807,2.419-5.193,1.107c0,0-3.122,1.531-3.944,4.203
				c-0.822,2.672-5.652-2.154-10.004-1.423c0,0-2.943-2.751-2.725-9.432c0.144-4.409,2.096-8.377,2.096-8.377
				s1.27-3.979,6.245-6.201C146.506,207.935,155.216,209.625,156.153,212.96z"/>
			<path style="fill:#E4897B;" d="M149.263,229.42c-0.25,1.584,0.057,2.97,0.855,3.853c1.066,1.156,2.773-0.311,3.463-2.344
				c0.6-1.807,0.805-4.641-0.752-4.959C151.271,225.652,149.591,227.47,149.263,229.42z"/>
		</g>
		<g>
			<path style="fill:#263238;" d="M150.36,245.048c-1.43,3.98-2.71,7.82-3.84,11.5c-0.72,2.28-1.38,4.51-1.99,6.66
				c-0.51,1.81-0.98,3.56-1.42,5.26c-0.21,0.82-0.42,1.63-0.62,2.43c-1.1,4.41-1.99,8.43-2.69,11.97
				c-2.1,10.54-2.59,16.87-2.59,16.87l-39.25-4.91c1.36-6.74,2.42-12.63,3.9-18.98c0.82-3.48,1.75-7.1,2.95-11.07
				c0.84-2.85,1.82-5.88,2.98-9.17c3.94-11.3,7.57-14.43,7.57-14.43C130.46,238.758,150.36,245.048,150.36,245.048z"/>
		</g>
		<path style="fill:#E4897B;" d="M163.411,279.839l6.989,1.047c0,0,2.374-0.784,4.879-1.047c2.506-0.264,5.407,0,5.407,0
			s3.165,1.187,3.165,4.22c0,0-7.385,1.978-10.22,0.791l-10.22-0.791V279.839z"/>
		<g>
			<polygon style="fill:#EBB376;" points="120.085,409.111 127.394,409.243 131.034,392.387 123.734,392.264 			"/>
			<polygon style="opacity:0.2;enable-background:new    ;" points="123.734,392.264 131.034,392.396 128.951,402.03 
				121.716,401.546 			"/>
		</g>
		<path style="fill:#407BFF;" d="M143.571,367.85c-4.819,18.32-10.646,31.439-10.646,31.439l-13.337-1.018
			c0,0,5.473-21.374,7.455-40.948c1.228-12.083,1.118-22.083-2.418-22.856c-2.227-0.491-7.437-0.473-14.11-0.318v-24.875
			c18.729,3.846,37.366,11.101,38.785,16.919C151.281,334.384,147.817,351.722,143.571,367.85z"/>
		<g>
			<polygon style="fill:#407BFF;" points="118.172,398.894 134.052,399.949 136.389,393.085 118.894,392.266 			"/>
			<polygon style="opacity:0.2;fill:#FFFFFF;" points="118.172,398.894 134.052,399.949 136.389,393.085 118.894,392.266 			"/>
		</g>
		<g>
			<path style="fill:#407BFF;" d="M128.491,408.879c0,0.008,0.151,0.011,0.153,0.019c0.008,0.027,0.163,0.051,0.184,0.069
				c0.012,0.016,0.013,0.039,0.031,0.051c0.021,0.006,0.042,0.002,0.062-0.005c0.619,0.194,1.257,0.321,1.903,0.377
				c0.482,0.086,0.977-0.011,1.39-0.273c0.262-0.234,0.364-0.598,0.265-0.935c-0.025-0.22-0.167-0.412-0.367-0.508
				c-0.469-0.215-1.311,0.055-2.024,0.373c0.45-0.56,0.784-1.217,0.719-1.669c-0.045-0.297-0.322-0.524-0.62-0.553
				c-0.263-0.048-0.605,0.021-0.812,0.191c-0.761,0.657-0.884,2.722-0.884,2.85c0,0.002,0,0.004,0,0.006c0,0.001,0,0.002,0,0.002
				C128.491,408.873,128.491,408.879,128.491,408.879z M129.276,408.456c-0.056,0.031-0.103,0.057-0.15,0.083
				c0.028-0.692,0.158-1.846,0.617-2.234c0.1-0.094,0.235-0.142,0.372-0.132l0.083,0.011c0.241,0.043,0.297,0.166,0.305,0.266
				C130.545,406.945,129.896,407.921,129.276,408.456z M129.381,408.818c0.88-0.485,2.131-1.02,2.596-0.804
				c0.099,0.046,0.166,0.141,0.176,0.25c0.056,0.213-0.005,0.44-0.159,0.597C131.628,409.175,130.668,409.156,129.381,408.818z"/>
		</g>
		<path style="fill:#263238;" d="M128.316,407.987l-8.182-0.51c-0.284-0.031-0.54,0.175-0.571,0.46c0,0.003-0.001,0.006-0.001,0.008
			l-0.803,6.455c-0.044,0.706,0.488,1.315,1.193,1.368c2.858,0.132,4.229,0.052,7.831,0.248c2.21,0.132,6.566,0.602,9.616,0.307
			c3.05-0.295,2.676-3.302,1.359-3.446c-3.123-0.355-7.26-2.651-9.214-4.392C129.201,408.188,128.769,408.012,128.316,407.987z"/>
		<path style="opacity:0.2;enable-background:new    ;" d="M143.571,367.85c-4.982-3.155-10.81-6.864-16.529-10.528
			c1.228-12.083,1.118-22.083-2.418-22.856c-2.227-0.491-7.437-0.473-14.11-0.318v-24.875c18.729,3.846,37.366,11.101,38.785,16.919
			C151.281,334.384,147.817,351.722,143.571,367.85z"/>
		<g>
			<polygon style="fill:#EBB376;" points="162.815,409.111 170.124,409.243 173.764,392.387 166.464,392.264 			"/>
			<polygon style="opacity:0.2;enable-background:new    ;" points="166.464,392.264 173.764,392.396 171.681,402.03 
				164.447,401.546 			"/>
		</g>
		<path style="fill:#407BFF;" d="M136.274,306.829l1.176-9.444l-38.173-6.284c0,0-12.484,24.735-6.373,36.857
			c5.605,11.121,65.267,4.496,74.451,6.504c9.277,2.028-5.037,63.805-5.037,63.805l13.337,1.018c0,0,20.608-55.6,16.371-73.089
			C190.177,318.565,158.727,308.462,136.274,306.829z"/>
		<g>
			<polygon style="fill:#407BFF;" points="160.902,398.894 176.783,399.949 179.119,393.085 161.624,392.266 			"/>
			<polygon style="opacity:0.2;fill:#FFFFFF;" points="160.902,398.894 176.783,399.949 179.119,393.085 161.624,392.266 			"/>
		</g>
		<g>
			<path style="fill:#407BFF;" d="M171.221,408.879c0,0.008,0.151,0.011,0.153,0.019c0.008,0.027,0.163,0.051,0.184,0.069
				c0.012,0.016,0.013,0.039,0.031,0.051c0.021,0.006,0.042,0.002,0.062-0.005c0.619,0.194,1.257,0.321,1.903,0.377
				c0.481,0.086,0.977-0.011,1.39-0.273c0.262-0.234,0.365-0.598,0.265-0.935c-0.025-0.22-0.167-0.412-0.367-0.508
				c-0.469-0.215-1.311,0.055-2.024,0.373c0.45-0.56,0.784-1.217,0.719-1.669c-0.045-0.297-0.322-0.524-0.62-0.553
				c-0.263-0.048-0.605,0.021-0.812,0.191c-0.761,0.657-0.884,2.722-0.884,2.85c0,0.002,0,0.004,0,0.006c0,0.001,0,0.002,0,0.002
				C171.221,408.873,171.221,408.879,171.221,408.879z M172.006,408.456c-0.055,0.031-0.103,0.057-0.15,0.083
				c0.028-0.692,0.158-1.846,0.617-2.234c0.1-0.094,0.235-0.142,0.372-0.132l0.083,0.011c0.241,0.043,0.297,0.166,0.305,0.266
				C173.275,406.945,172.626,407.921,172.006,408.456z M172.111,408.818c0.881-0.485,2.131-1.02,2.596-0.804
				c0.099,0.046,0.166,0.141,0.176,0.25c0.056,0.213-0.005,0.44-0.159,0.597C174.359,409.175,173.399,409.156,172.111,408.818z"/>
		</g>
		<path style="fill:#263238;" d="M171.046,407.987l-8.182-0.51c-0.284-0.031-0.54,0.175-0.571,0.46c0,0.003-0.001,0.006-0.001,0.008
			l-0.803,6.455c-0.044,0.706,0.488,1.315,1.193,1.368c2.858,0.132,4.229,0.052,7.831,0.248c2.21,0.132,6.566,0.602,9.616,0.307
			c3.05-0.295,2.676-3.302,1.359-3.446c-3.123-0.355-7.26-2.651-9.214-4.392C171.932,408.188,171.499,408.012,171.046,407.987z"/>
		<g>
			<polygon points="97.877,295.4 115.564,297.718 116.136,295.111 98.418,292.533 			"/>
			<polygon points="117.608,295.126 117.394,297.718 133.74,299.966 133.74,297.404 			"/>
			<polygon points="134.754,297.546 134.754,299.966 137.126,300.283 137.126,297.943 			"/>
		</g>
		<path style="opacity:0.2;enable-background:new    ;" d="M146.52,256.548c-0.72,2.28-1.38,4.51-1.99,6.66
			c-0.51,1.81-0.98,3.56-1.42,5.26c-1.23-6.7,1-14.7,1-14.7L146.52,256.548z"/>
		<path style="fill:#E4897B;" d="M150.357,245.043c3.193,0.646,4.247,25.438,4.379,28.075c0.132,2.637,15.664,7.769,15.664,7.769
			v3.614c0,0-16.644-1.164-20.529-2.754s-4.835-24.586-4.835-24.586L150.357,245.043z"/>
		<path style="fill:#263238;" d="M150.357,245.043c2.929,0.91,4.379,17.262,4.379,17.262l-9.057,3.649l-2.248-9.093
			c0,0-0.643-1.846,0.624-5.749C145.885,245.475,150.357,245.043,150.357,245.043z"/>
	</g>
	<g>
		<path style="fill:#407BFF;" d="M162.938,338.663h-88.07v-4.231c0-4.37,3.542-7.912,7.912-7.912h72.246
			c4.37,0,7.912,3.542,7.912,7.912V338.663z"/>
		<path style="fill:#263238;" d="M106.275,296.455h48.489c2.494,0,4.339,2.321,3.777,4.751l-8.669,37.459h-2.002l7.386-32.829
			c0.545-2.424-1.298-4.728-3.782-4.728h-44.209L106.275,296.455z"/>
		<path style="fill:#263238;" d="M124.626,339.975v31.65c0,1.02-0.83,1.84-1.84,1.84h-7.76c-1.02,0-1.84-0.82-1.84-1.84v-31.65
			H124.626z"/>
		<g>
			<g>
				<path style="fill:#263238;" d="M81.792,413.056c0-1.857-1.506-3.363-3.363-3.363c-1.857,0-3.363,1.505-3.363,3.363
					c0,1.857,1.506,3.363,3.363,3.363C80.286,416.418,81.792,414.913,81.792,413.056z"/>
				<path style="opacity:0.2;fill:#FFFFFF;" d="M80.11,413.056c0-0.929-0.753-1.681-1.681-1.681c-0.928,0-1.681,0.753-1.681,1.681
					c0,0.928,0.753,1.681,1.681,1.681C79.358,414.737,80.11,413.984,80.11,413.056z"/>
			</g>
			<g>
				<path style="fill:#263238;" d="M162.739,413.056c0-1.857-1.506-3.363-3.363-3.363s-3.363,1.505-3.363,3.363
					c0,1.857,1.505,3.363,3.363,3.363S162.739,414.913,162.739,413.056z"/>
				<path style="opacity:0.2;fill:#FFFFFF;" d="M161.058,413.056c0-0.929-0.753-1.681-1.681-1.681c-0.929,0-1.681,0.753-1.681,1.681
					c0,0.928,0.753,1.681,1.681,1.681C160.305,414.737,161.058,413.984,161.058,413.056z"/>
			</g>
		</g>
		<path style="fill:#263238;" d="M121.685,398.301v-36.176h-5.564v36.176c-21.665,0.555-34.829,8.129-37.464,9.789
			c-0.307,0.194-0.491,0.533-0.491,0.896v3.006c0,0.587,0.476,1.063,1.063,1.063l0,0c0.382,0,0.735-0.205,0.924-0.537l1.285-2.254
			c0,0,14.902-5.313,34.682-5.743v5.946c0,0.76,0.616,1.376,1.376,1.376h2.812c0.76,0,1.376-0.616,1.376-1.376v-5.946
			c19.78,0.429,34.682,5.743,34.682,5.743l1.285,2.254c0.189,0.332,0.542,0.537,0.924,0.537l0,0c0.587,0,1.064-0.476,1.064-1.063
			v-3.006c0-0.363-0.183-0.702-0.491-0.896C156.514,406.43,143.35,398.856,121.685,398.301z"/>
		<rect x="117.078" y="409.693" style="fill:#263238;" width="3.65" height="6.725"/>
		<rect x="113.186" y="339.975" style="opacity:0.2;enable-background:new    ;" width="11.44" height="13.15"/>
		<path style="fill:#263238;" d="M165.346,336.715v3.78c0,1.07-0.87,1.93-1.94,1.93h-89.01c-1.07,0-1.93-0.86-1.93-1.93v-3.78
			c0-1.06,0.86-1.93,1.93-1.93h89.01C164.476,334.785,165.346,335.655,165.346,336.715z"/>
		<path style="fill:#263238;" d="M124.396,338.665h-51.93c0,0-16.5-27.44-16.5-72.78v-16.65c0-6.84,5.55-12.39,12.4-12.39h22.02
			c6.71,0,12.2,5.33,12.39,12.04C103.416,272.245,106.856,322.835,124.396,338.665z"/>
		<path style="opacity:0.2;fill:#FFFFFF;" d="M112.972,338.665H74.813c-1.475,0-2.829-0.813-3.508-2.123
			c-3.756-7.244-15.34-32.667-15.34-70.657v-16.65c0-6.843,5.547-12.39,12.39-12.39h19.03c6.71,0,12.2,5.33,12.39,12.04
			c0.572,20.87,3.378,63.474,16.478,83.608C117.983,335.151,116.144,338.665,112.972,338.665z"/>
		<path style="opacity:0.2;enable-background:new    ;" d="M165.346,336.715v3.78c0,1.066-0.864,1.93-1.93,1.93h-39.89
			c-1.441,0-2.61-1.168-2.61-2.61v-2.421c0-1.441,1.168-2.61,2.61-2.61h39.88C164.476,334.785,165.346,335.655,165.346,336.715z"/>
		<g>
			<path style="fill:#407BFF;" d="M72.451,235.374l3.297-4.323c0,0,14.098,0.641,14.433,5.793
				C90.517,241.997,72.451,235.374,72.451,235.374z"/>
			<g>
				<path style="fill:#407BFF;" d="M63.19,248.301c0,0,0.86,22.894,0,82.006c-0.029,1.993-7.462,1.927-7.975,0
					c-1.792-6.725,0-60.47,0-60.47"/>
				<polygon style="fill:#407BFF;" points="55.361,330.604 62.952,330.862 62.952,334.652 55.361,334.263 				"/>
				<path style="opacity:0.2;fill:#FFFFFF;enable-background:new    ;" d="M63.19,248.301c0,0,0.86,22.894,0,82.006
					c-0.029,1.993-7.462,1.927-7.975,0c-1.792-6.725,0-60.47,0-60.47"/>
			</g>
			<path style="fill:#407BFF;" d="M51.612,318.216c-0.408-10.895-1.902-60.99,4.353-77.594c0,0,5.893-7.482,25.826-7.482
				s25.93,14.147,25.93,14.147s0.86,22.894,0,82.006c-0.029,1.993-7.462,1.927-7.975,0c-1.792-6.725,0-60.47,0-60.47l-3.99,48.893
				c-0.057,0.694-0.69,1.195-1.378,1.089c-6.287-0.968-34.025-4.889-41.329,0.112C52.451,319.329,51.639,318.943,51.612,318.216z"/>
			<polygon style="fill:#407BFF;" points="99.894,329.59 107.484,329.849 107.484,333.639 99.894,333.25 			"/>
			<path style="fill:#407BFF;" d="M94.749,318.863l-0.6,3.992c0,0-30.929-6.748-40.951,0.439l-0.593-4.43
				C52.604,318.863,60.343,311.729,94.749,318.863z"/>
			<path style="opacity:0.4;fill:#FFFFFF;enable-background:new    ;" d="M51.612,318.216c-0.408-10.895-1.902-60.99,4.353-77.594
				c0,0,5.893-7.482,25.826-7.482s25.93,14.147,25.93,14.147s0.86,22.894,0,82.006c-0.029,1.993-7.462,1.927-7.975,0
				c-1.792-6.725,0-60.47,0-60.47l-3.99,48.893c-0.057,0.694-0.69,1.195-1.378,1.089c-6.287-0.968-34.025-4.889-41.329,0.112
				C52.451,319.329,51.639,318.943,51.612,318.216z"/>
			<path style="opacity:0.2;enable-background:new    ;" d="M99.747,268.824c0,0,0.44-15.523,7.975-21.536
				C107.722,247.288,98.297,251.343,99.747,268.824z"/>
			<path style="opacity:0.2;enable-background:new    ;" d="M77.066,234.929c0,0-9.099,4.957-10.549,73.133
				C66.517,308.063,62.56,239.334,77.066,234.929z"/>
		</g>
	</g>
</g>
</svg>
